<?xml version="1.0" encoding="utf-8"?>
<!-- Generator: Adobe Illustrator 16.0.0, SVG Export Plug-In . SVG Version: 6.00 Build 0)  -->
<!DOCTYPE svg PUBLIC "-//W3C//DTD SVG 1.1//EN" "http://www.w3.org/Graphics/SVG/1.1/DTD/svg11.dtd">
<svg version="1.1" id="Layer_1" xmlns="http://www.w3.org/2000/svg" xmlns:xlink="http://www.w3.org/1999/xlink" x="0px" y="0px"
	 width="176px" height="24px" viewBox="0 0 176 24" style="enable-background:new 0 0 176 24;" xml:space="preserve">
<style type="text/css">
<![CDATA[
	.st0{opacity:0.8;fill:#2C5EAA;}
	.st1{fill:url(#SVGID_1_);}
	.st2{fill:url(#SVGID_2_);}
	.st3{fill:#333333;}
]]>
</style>
<g>
	<path class="st3" d="M0.6719,7.0293c0-1.7646,0.6191-3.1523,1.8584-4.1621s3.001-1.5137,5.2852-1.5137
		c2.1553,0,4.1357,0.3857,5.9424,1.1592v4.0166H9.8877V4.5146C9.29,4.3115,8.6113,4.209,7.8496,4.209
		c-0.7441,0-1.3154,0.1416-1.7119,0.4229C5.7402,4.9131,5.542,5.3154,5.542,5.8369c0,0.1992,0.0225,0.3711,0.0674,0.5156
		S5.7451,6.6299,5.8799,6.75c0.1357,0.1201,0.2627,0.2197,0.3818,0.2988C6.3799,7.127,6.585,7.2139,6.876,7.3096
		c0.291,0.0947,0.5332,0.1699,0.7256,0.2236S8.1084,7.668,8.542,7.7754C8.7559,7.833,8.9199,7.874,9.0342,7.8994
		c0.6182,0.1572,1.1621,0.3193,1.6318,0.4844c0.4707,0.166,0.9531,0.3916,1.4482,0.6768c0.4951,0.2861,0.8994,0.6055,1.2129,0.957
		c0.3135,0.3525,0.5713,0.7949,0.7734,1.3291s0.3037,1.1328,0.3037,1.7959c0,1.7412-0.5947,3.0957-1.7842,4.0654
		s-3.0068,1.4541-5.4512,1.4541c-2.332,0-4.4531-0.3867-6.3633-1.1621v-4.2695h3.8936v2.4863
		c0.6641,0.2627,1.4619,0.3945,2.3926,0.3945c0.6797,0,1.2227-0.1465,1.627-0.4414c0.4053-0.2939,0.6074-0.6973,0.6074-1.2109
		c0-0.2646-0.041-0.4951-0.1221-0.6895s-0.2021-0.3604-0.3652-0.4971c-0.1621-0.1367-0.3691-0.2549-0.6201-0.3535
		c-0.252-0.0996-0.5459-0.1953-0.8828-0.2861s-0.7207-0.1904-1.1504-0.2979c-0.0645-0.0166-0.1182-0.0293-0.1582-0.0371
		c-0.041-0.0088-0.0908-0.0195-0.1523-0.0313c-0.0605-0.0127-0.1152-0.0273-0.1641-0.0439
		c-0.7959-0.207-1.4775-0.4365-2.0449-0.6895c-0.5684-0.252-1.0898-0.5771-1.5645-0.9756C1.627,10.1602,1.2695,9.668,1.0303,9.0801
		C0.791,8.4912,0.6719,7.8086,0.6719,7.0293z"/>
	<path class="st3" d="M16.2646,4.2578V1.707h3.0273c1.2373,0,2.2705-0.0977,3.1006-0.293v10.498l2.8438-2.625
		c0.1387-0.1211,0.1797-0.2656,0.123-0.4326c-0.0576-0.167-0.1797-0.251-0.3672-0.251h-1V6.0527h7.0547v2.5508h-0.9277
		c-0.3086,0-0.6504,0.1592-1.0254,0.4766l-1.623,1.3555l2.8203,4.7725c0.2188,0.3662,0.4883,0.5498,0.8047,0.5498h0.4521v2.5508
		h-7.1533v-2.5508h0.4766c0.1787,0,0.2676-0.082,0.2676-0.2441c0-0.0977-0.0322-0.2246-0.0977-0.3789l-1.123-1.9531l-1.5254,1.3789
		v0.4277c-0.0078,0.3096,0.0264,0.5146,0.1035,0.6162c0.0771,0.1025,0.21,0.1533,0.3965,0.1533h0.5254v2.5508h-7.0557v-2.5508
		h0.6592c0.1787,0,0.3066-0.0488,0.3848-0.1465c0.0771-0.0977,0.1152-0.3057,0.1152-0.623V5.1621
		c0-0.3506-0.0361-0.5879-0.1094-0.7148c-0.0732-0.126-0.2031-0.1895-0.3906-0.1895H16.2646z"/>
	<path class="st3" d="M32.7852,19.957c0-0.7578,0.2168-1.3594,0.6514-1.8066c0.4346-0.4482,1.0596-0.6719,1.876-0.6719
		c0.8779,0,1.5361,0.3096,1.9746,0.9277c0.2461,0.3662,0.3691,0.7646,0.3691,1.1963c0,0.3096-0.0615,0.6348-0.1846,0.9766
		c0.6836-0.2686,1.168-0.9688,1.4521-2.0996v-0.1953l-4.3613-8.8994c-0.1758-0.3252-0.3184-0.5371-0.4277-0.6348
		c-0.1104-0.0977-0.2744-0.1465-0.4941-0.1465h-0.5664V6.0527h7.707v2.5508h-0.5498c-0.2607,0-0.4268,0.1025-0.501,0.3057
		c-0.0723,0.2031-0.0527,0.4111,0.0615,0.6221l1.7939,4.0039l1.502-3.9297c0.1055-0.334,0.1074-0.584,0.0059-0.751
		s-0.2871-0.251-0.5547-0.251h-0.5986V6.0527h5.7256v2.5508h-0.5986c-0.2607,0-0.4453,0.0479-0.5557,0.1406
		c-0.1094,0.0938-0.2334,0.3076-0.3721,0.6406l-3.3564,8.2773c-0.293,0.7891-0.5605,1.4443-0.7998,1.9648
		c-0.2402,0.5205-0.5254,1.0195-0.8545,1.4951c-0.3301,0.4766-0.6816,0.8486-1.0566,1.1172
		c-0.374,0.2686-0.8174,0.4805-1.3301,0.6348s-1.0986,0.2314-1.7578,0.2314c-1.3252,0-2.3564-0.2842-3.0938-0.8535
		C33.1533,21.6816,32.7852,20.917,32.7852,19.957z"/>
	<path class="st3" d="M49.002,18.3086v-2.5508h0.6465c0.1787,0,0.3066-0.0488,0.3848-0.1465
		c0.0771-0.0977,0.1152-0.3057,0.1152-0.623V9.5078c0-0.3506-0.0361-0.5879-0.1094-0.7148
		c-0.0732-0.126-0.2031-0.1895-0.3906-0.1895H49.002V6.0527h2.8682c1.2207,0,2.2461-0.0977,3.0762-0.293v2.0996
		c0.7324-1.4326,2.0752-2.1484,4.0283-2.1484c2.6777,0,4.0156,1.6318,4.0156,4.8945v4.3828c0,0.3174,0.0391,0.5254,0.1162,0.623
		s0.2061,0.1465,0.3848,0.1465h0.6592v2.5508h-7.0557v-2.5508h0.5244c0.1797,0,0.3076-0.0488,0.3848-0.1465
		s0.1162-0.3057,0.1162-0.623v-4.3086c0-0.709-0.1084-1.209-0.3232-1.502c-0.2158-0.293-0.5762-0.4395-1.0801-0.4395
		c-0.5703,0-0.9951,0.2139-1.2764,0.6406c-0.2803,0.4277-0.4209,1.1133-0.4209,2.0566v3.5527c0,0.3174,0.0381,0.5254,0.1162,0.623
		c0.0771,0.0977,0.2051,0.1465,0.3838,0.1465h0.5254v2.5508H49.002z"/>
	<path class="st3" d="M65.0645,12.1934c0-1.9404,0.6357-3.5059,1.9063-4.6963c1.2695-1.1904,2.9443-1.7861,5.0215-1.7861
		c2.0371,0,3.6768,0.5928,4.9189,1.7793c1.2412,1.1865,1.8623,2.7539,1.8623,4.7031c0,1.9326-0.6309,3.4941-1.8936,4.6846
		c-1.2617,1.1895-2.9316,1.7842-5.0098,1.7842c-2.0537,0-3.7012-0.5908-4.9424-1.7725
		C65.6855,15.708,65.0645,14.1426,65.0645,12.1934z M69.9355,12.4316c0,1.373,0.1504,2.3301,0.4531,2.8701
		c0.3018,0.54,0.8125,0.8096,1.5303,0.8096c0.7188,0,1.2285-0.2725,1.5303-0.8164c0.3027-0.5439,0.4531-1.499,0.4531-2.8633v-0.4648
		c0-1.3809-0.1504-2.3438-0.4531-2.8887c-0.3018-0.5439-0.8115-0.8164-1.5303-0.8164c-0.71,0-1.2178,0.2744-1.5244,0.8232
		c-0.3057,0.5479-0.459,1.5088-0.459,2.8818V12.4316z"/>
	<path class="st3" d="M79.7256,8.6035V6.0527h7.4834v2.5508h-0.6602c-0.252,0-0.4229,0.084-0.5117,0.251
		c-0.0898,0.167-0.0859,0.3926,0.0117,0.6768c0.0166,0.0488,0.627,1.583,1.8311,4.6025c0.7734-1.9287,1.3545-3.4385,1.7451-4.5283
		c0.1064-0.3096,0.1123-0.5537,0.0186-0.7324c-0.0938-0.1797-0.2744-0.2695-0.543-0.2695h-0.7451V6.0527h5.8232v2.5508h-0.5732
		c-0.2529,0-0.4482,0.0537-0.5859,0.1592c-0.1387,0.1055-0.2695,0.3135-0.3906,0.6221l-3.8213,9.0703h-3.7842l-3.8945-9.0703
		c-0.1133-0.3086-0.2314-0.5166-0.3535-0.6221s-0.2813-0.1592-0.4766-0.1592H79.7256z"/>
	<path class="st3" d="M95.1055,15.3594c0-1.4854,0.8398-2.5947,2.5195-3.3291c0.8975-0.3877,2.3369-0.752,4.3184-1.0938
		c0.0986-0.0166,0.2432-0.041,0.4336-0.0742c0.291-0.04,0.5127-0.0713,0.6641-0.0957v-0.6563c0-0.6436-0.1465-1.1123-0.4385-1.4072
		c-0.291-0.2939-0.7773-0.4414-1.458-0.4414c-0.3047,0-0.6104,0.0322-0.916,0.0947c0.0762,0.3467,0.1143,0.6543,0.1143,0.9229
		c0,0.5674-0.2119,1.0381-0.6338,1.4121c-0.4229,0.374-0.9619,0.5615-1.6162,0.5615c-0.8428,0-1.4902-0.1895-1.9424-0.5674
		c-0.4521-0.3789-0.6777-0.9219-0.6777-1.6299c0-1.0986,0.5488-1.9307,1.6465-2.4961s2.6875-0.8486,4.7666-0.8486
		c2.2041,0,3.7588,0.3291,4.665,0.9873c0.9072,0.6582,1.3604,1.7939,1.3604,3.4072v4.8926c0,0.2813,0.0342,0.4785,0.1035,0.5908
		s0.1934,0.1689,0.3721,0.1689h0.6475v2.5508h-4.8467c-0.2764-0.2451-0.4922-0.4912-0.6465-0.7363s-0.3047-0.5723-0.4512-0.9814
		c-0.292,0.5967-0.8066,1.0908-1.5469,1.4834c-0.7393,0.3926-1.5381,0.5879-2.3965,0.5879c-1.2461,0-2.2314-0.3066-2.9551-0.9199
		S95.1055,16.335,95.1055,15.3594z M99.9766,14.6729c0,0.4229,0.1006,0.7686,0.3018,1.0361
		c0.2012,0.2686,0.457,0.4023,0.7695,0.4023c0.6475,0,1.1416-0.2334,1.4824-0.7002c0.3398-0.4668,0.5107-1.0977,0.5107-1.8926v-0.96
		c-0.4277,0.0879-0.7939,0.1621-1.0986,0.2227c-0.3057,0.0605-0.584,0.1455-0.835,0.2539c-0.251,0.1094-0.4521,0.2344-0.6035,0.375
		c-0.1504,0.1416-0.2764,0.3184-0.377,0.5322C100.0264,14.1553,99.9766,14.3984,99.9766,14.6729z"/>
</g>
<g>
	<g>
		<linearGradient id="SVGID_1_" gradientUnits="userSpaceOnUse" x1="140.5903" y1="3.6621" x2="140.5903" y2="13.5625">
			<stop  offset="0.1064" style="stop-color:#5EC8E0"/>
			<stop  offset="1" style="stop-color:#1EA2C0"/>
		</linearGradient>
		<path class="st1" d="M126.9688,13.0342c3.1494-0.5137,6.835-1.7715,11.1016-3.2275c3.6631-1.2471,7.8145-2.6621,12.5029-3.9102
			c3.9287-1.0498,7.8643-1.3672,11.1055-1.3887c-0.7725-0.1426-1.5596-0.2803-2.3506-0.4111
			c-5.2578-0.8662-9.166-0.3389-13.6514,0.71c0,0-4.8086,1.4063-6.0518,1.8418c-1.2451,0.4326-6.7412,2.6582-8.6719,3.4668
			c-3.9453,1.6484-6.5449,2.6133-9.1006,3.1289c-0.626,0.126-1.4434,0.2266-2.3506,0.3057
			C121.6963,13.6055,124.2236,13.4844,126.9688,13.0342z"/>
		<linearGradient id="SVGID_2_" gradientUnits="userSpaceOnUse" x1="141.5" y1="5.6919" x2="141.5" y2="18.6621">
			<stop  offset="0.1064" style="stop-color:#5EC8E0"/>
			<stop  offset="1" style="stop-color:#1EA2C0"/>
		</linearGradient>
		<path class="st2" d="M170.4014,6.3652c-1.0908-0.1826-3.0293-0.4561-5.4639-0.5918c-3.5078-0.1953-8.792-0.1348-14.0439,1.2666
			c-4.6494,1.2373-8.7793,2.6445-12.4229,3.8877c-4.3193,1.4727-8.0498,2.7441-11.3008,3.2773
			c-2.4502,0.4023-4.7246,0.5449-6.7188,0.5449c-2.0068,0-3.7324-0.1455-5.0693-0.3174c-1.4258-0.1816-2.5654-0.4102-3.3633-0.5967
			c-0.6328,0.0039-1.0186,0.001-1.0186,0.001s6.9424,1.5166,9.5029,1.7139c2.5635,0.1982,5.6953,0.0039,8.0889-0.2627
			c4.1797-0.4678,7.1162-1.251,10.8525-1.9111c3.7354-0.6592,5.8145-0.9053,11.2559-0.4395
			c2.8936,0.249,4.9883,1.0322,8.1377,3.2061c2.9014,2.0039,3.0215,2.459,3.0215,2.5186c0.0098-0.1045,0.1484-1.4658,0.5967-3.6592
			c0.4619-2.2852,2.2871-4.002,4.1191-5.2959C168.4082,8.4141,172,6.7598,172,6.7598S171.4082,6.6074,170.4014,6.3652z"/>
	</g>
	<path class="st0" d="M170.4014,6.3652c-0.5918-0.0967-1.4375-0.2236-2.4688-0.3408c-3.0449,2.7949-8.9834,5.2109-16.79,6.9639
		c2.666,0.2891,4.7109,1.0938,7.6953,3.1553c2.9014,2.0039,3.0215,2.459,3.0215,2.5186c0.0098-0.1045,0.1484-1.4658,0.5967-3.6592
		c0.4619-2.2852,2.2871-4.002,4.1191-5.2959C168.4082,8.4141,172,6.7598,172,6.7598S171.4082,6.6074,170.4014,6.3652z"/>
</g>
<g>
</g>
<g>
</g>
<g>
</g>
<g>
</g>
<g>
</g>
<g>
</g>
</svg>
